# xmcd CD database file
#
# Track frame offsets:
#	150
#	28107
#	58445
#	77825
#	100200
#	118750
#	138102
#	160005
#	176522
#
# Disc length: 2636 seconds
#
# Revision: 4
# Processed by: cddbd v1.5.2PL0 Copyright (c) Steve Scherf et al.
# Submitted via: CDex 1.51
#
DISCID=740a4a09
DTITLE=Willie Dixon - I Am The Blues
DYEAR=1900
DGENRE=Blues
TTITLE0=Back Door Man
TTITLE1=I Can't Quit You Baby
TTITLE2=The Seventh Son
TTITLE3=Spoonful
TTITLE4=I Ain't Superstitious
TTITLE5=You Shook Me
TTITLE6=I'm Your Hoochie Coochie Man
TTITLE7=The Little Red Rooster
TTITLE8=The Same Thing
EXTD=
EXTT0=
EXTT1=
EXTT2=
EXTT3=
EXTT4=
EXTT5=
EXTT6=
EXTT7=
EXTT8=
PLAYORDER=
